<svg preserveAspectRatio="xMidYMid meet" data-bbox="55.28 38.51 89.44 122.979" viewBox="55.28 38.51 89.44 122.979" height="200" width="200" xmlns="http://www.w3.org/2000/svg" data-type="color" role="presentation" aria-hidden="true">
    <g>
        <path d="M135.403 161.489H64.597c-5.137 0-9.317-4.179-9.317-9.317V47.827c0-5.137 4.179-9.317 9.317-9.317h50.949a9.26 9.26 0 0 1 6.588 2.728l19.857 19.857a9.255 9.255 0 0 1 2.729 6.588v84.489c0 5.138-4.18 9.317-9.317 9.317zM64.597 42.236a5.597 5.597 0 0 0-5.59 5.591v104.346a5.596 5.596 0 0 0 5.59 5.591h70.806a5.597 5.597 0 0 0 5.59-5.591V67.684a5.55 5.55 0 0 0-1.637-3.952l-19.857-19.857a5.558 5.558 0 0 0-3.953-1.638H64.597z" fill="#210641" data-color="1"></path>
        <path d="M142.856 66.459h-16.77c-5.137 0-9.317-4.178-9.317-9.315v-16.77h3.727v16.77a5.596 5.596 0 0 0 5.59 5.59h16.77v3.725z" fill="#210641" data-color="1"></path>
        <path d="M84.07 131.726c-4.392 0-7.965-3.572-7.965-7.965s3.573-7.965 7.965-7.965c4.392 0 7.965 3.572 7.965 7.965s-3.573 7.965-7.965 7.965zm0-12.204a4.243 4.243 0 0 0-4.238 4.239A4.243 4.243 0 0 0 84.07 128a4.243 4.243 0 0 0 4.238-4.239 4.244 4.244 0 0 0-4.238-4.239z" fill="#210641" data-color="1"></path>
        <path d="M108.477 122.573c-4.392 0-7.965-3.572-7.965-7.965 0-4.392 3.573-7.965 7.965-7.965 4.392 0 7.965 3.572 7.965 7.965s-3.573 7.965-7.965 7.965zm0-12.203a4.243 4.243 0 0 0-4.238 4.239 4.243 4.243 0 0 0 4.238 4.239 4.243 4.243 0 0 0 4.238-4.239 4.243 4.243 0 0 0-4.238-4.239z" fill="#210641" data-color="1"></path>
        <path d="M92.035 123.761h-3.727V89.526c0-.777.482-1.472 1.209-1.745l24.407-9.153a1.865 1.865 0 0 1 2.517 1.745v34.235h-3.727V83.062l-20.68 7.755v32.944z" fill="#210641" data-color="1"></path>
        <path fill="#210641" d="M114.251 87.938l.655 1.744-24.404 9.162-.654-1.744 24.403-9.162z" data-color="1"></path>
    </g>
</svg>