<svg preserveAspectRatio="xMidYMid meet" data-bbox="38.5 38.5 123 123" viewBox="38.5 38.5 123 123" height="200" width="200" xmlns="http://www.w3.org/2000/svg" data-type="color" role="presentation" aria-hidden="true">
    <g>
        <path fill="#210641" d="M158.572 82.429v5.857H41.429v-5.857h117.143z" data-color="1"></path>
        <path fill="#210641" d="M123.428 53.143V59H76.571v-5.857h46.857z" data-color="1"></path>
        <path d="M152.714 161.5H47.286c-4.845 0-8.786-3.941-8.786-8.786V61.929c0-4.845 3.941-8.786 8.786-8.786H59V59H47.286a2.931 2.931 0 0 0-2.929 2.929v90.786a2.931 2.931 0 0 0 2.929 2.929h105.429a2.931 2.931 0 0 0 2.929-2.929V61.929A2.931 2.931 0 0 0 152.715 59H141v-5.857h11.714c4.845 0 8.786 3.941 8.786 8.786v90.786c0 4.844-3.941 8.785-8.786 8.785z" fill="#210641" data-color="1"></path>
        <path d="M143.929 67.786H120.5V44.357a5.864 5.864 0 0 1 5.857-5.857h11.714a5.864 5.864 0 0 1 5.857 5.857v23.429zm-17.572-5.857h11.714V44.357h-11.714v17.572z" fill="#210641" data-color="1"></path>
        <path d="M79.5 67.786H56.071V44.357a5.864 5.864 0 0 1 5.857-5.857h11.714a5.864 5.864 0 0 1 5.857 5.857v23.429zm-17.571-5.857h11.714V44.357H61.929v17.572z" fill="#210641" data-color="1"></path>
        <path fill="#210641" d="M94.143 102.929v5.857H82.429v-5.857h11.714z" data-color="1"></path>
        <path fill="#210641" d="M117.571 102.929v5.857h-11.714v-5.857h11.714z" data-color="1"></path>
        <path fill="#210641" d="M141 102.929v5.857h-11.714v-5.857H141z" data-color="1"></path>
        <path fill="#210641" d="M70.714 117.571v5.857H59v-5.857h11.714z" data-color="1"></path>
        <path fill="#210641" d="M94.143 117.571v5.857H82.429v-5.857h11.714z" data-color="1"></path>
        <path fill="#210641" d="M117.571 117.571v5.857h-11.714v-5.857h11.714z" data-color="1"></path>
        <path fill="#210641" d="M141 117.571v5.857h-11.714v-5.857H141z" data-color="1"></path>
        <path fill="#210641" d="M70.714 132.214v5.857H59v-5.857h11.714z" data-color="1"></path>
        <path fill="#210641" d="M94.143 132.214v5.857H82.429v-5.857h11.714z" data-color="1"></path>
        <path fill="#210641" d="M117.571 132.214v5.857h-11.714v-5.857h11.714z" data-color="1"></path>
    </g>
</svg>