<svg preserveAspectRatio="xMidYMid meet" data-bbox="17.354 40.6 165.29 118.8" xmlns="http://www.w3.org/2000/svg" width="200" height="200" viewBox="17.354 40.6 165.29 118.8" data-type="color" role="presentation" aria-hidden="true"><defs><style>#comp-kgg4mtyc svg [data-color="1"] {fill: #210641;}</style></defs>
    <g>
        <path fill="#2B2E83" d="M174.913 131.844c-3.271-.786-6.174-2.815-7.393-5.168-.571-1.106-.735-2.218-.496-3.374 9.946-6.735 15.62-16.638 15.62-27.363 0-19.492-19.131-35.35-42.646-35.35-2.482 0-4.9.213-7.266.552C120.569 48.254 101.72 40.6 81.81 40.6c-35.542 0-64.456 23.807-64.456 53.07 0 16.261 8.77 31.287 24.111 41.409.759 2.574.51 5.103-.742 7.528-2.168 4.193-7.239 7.784-12.917 9.149-1.787.43-3 2.094-2.864 3.927a3.755 3.755 0 0 0 3.418 3.456c1.975.17 4.07.261 6.257.261 13.21 0 29.731-3.335 42.629-12.797 19.562 1.129 38.13-4.858 51.496-16.566a51.613 51.613 0 0 0 13.777 1.187c9.753 6.991 21.14 8.17 27.7 8.17 1.777 0 3.198-.087 4.141-.167a3.753 3.753 0 0 0 3.418-3.456 3.748 3.748 0 0 0-2.865-3.927zm-98.525 7.185a3.763 3.763 0 0 0-2.583.776c-8.933 6.934-20.107 10.378-30.369 11.584 1.619-1.628 2.961-3.428 3.95-5.339 2.437-4.713 2.668-9.838.674-14.819a3.737 3.737 0 0 0-1.479-1.776c-13.806-8.721-21.726-21.764-21.726-35.785 0-25.127 25.549-45.57 56.956-45.57 16.185 0 31.53 5.548 42.275 15.067-15.648 5.241-26.731 17.944-26.731 32.771 0 8.718 3.845 17.086 10.83 23.561 3.493 3.239 7.587 5.828 12.056 7.767-11.805 8.636-27.717 12.982-43.853 11.763zm84.473-8.909c.166.321.344.637.54.948-5.369-1.031-10.884-3.098-15.442-6.636a3.757 3.757 0 0 0-2.583-.776c-11.411.859-22.639-2.748-30.09-9.657-5.437-5.04-8.43-11.455-8.43-18.062 0-15.356 15.767-27.85 35.144-27.85 19.38 0 35.146 12.494 35.146 27.85 0 8.511-4.846 16.453-13.293 21.786a3.737 3.737 0 0 0-1.479 1.777c-1.43 3.569-1.261 7.241.487 10.62z" data-color="1"></path>
    </g>
</svg>