<svg preserveAspectRatio="xMidYMid meet" data-bbox="0 20.005 200.1 159.895" xmlns="http://www.w3.org/2000/svg" width="200" height="200" viewBox="0 20.005 200.1 159.895" role="presentation" aria-hidden="true">
    <g>
        <path fill="#210641" d="M200 80.4c0-8.6-6.9-20.8-15.8-20.8h-36.8c3.4-6.8 7.3-15 8.2-19.6 1.7-8-4.1-16.7-12.6-19.3-7.7-2.4-17.7 1.6-21.9 9.2C113.7 43 94.6 58.3 68 74.2c-1 .6-2.1 1.3-3.2 2.1V64.2c0-2.6-2.1-4.6-4.6-4.6H4.6C2 59.6 0 61.7 0 64.2v111.1c0 2.6 2.1 4.6 4.6 4.6h55.6c2.6 0 4.6-2.1 4.6-4.6v-9.1c8.8 8.6 22.4 13.7 35.1 13.7h67.4c9 0 15.8-9.5 15.8-17.9 0-3.5-1.1-7.2-2.9-10.4 7.2-2.1 12.2-10.1 12.2-17.4 0-3.7-1.2-7.6-3.3-11 6.4-2.7 11-10.5 11-17.4 0-4.6-1.9-9.5-5-13.1 3-3.2 4.9-7.7 4.9-12.3zM55.6 170.7H9.3V68.8h46.3v101.9zm128.6-55.6h-26.8c-2.6 0-4.6 2.1-4.6 4.6 0 2.6 2.1 4.6 4.6 4.6h19.3c2.8 0 6.3 5.5 6.3 9.9 0 4.1-3.4 8.6-6.5 8.6h-28.4c-2.6 0-4.6 2.1-4.6 4.6 0 2.6 2.1 4.6 4.6 4.6h19.3c2.8 0 6.3 5.5 6.3 9.9 0 4.1-3.4 8.6-6.5 8.6H99.9c-15.6 0-35.1-9.7-35.1-24.8V89c0-2 4.7-4.9 7.9-6.9 19.5-11.7 47.2-29.4 57.6-47.7 2.1-3.7 7-6 10.5-4.9 3.9 1.2 6.7 5.2 6 8.5-.9 4.3-6.2 14.8-10 22.1-1.5.8-2.5 2.3-2.5 4.1 0 .2.1.3.1.4-.2.4-.4.8-.6 1.1-1.2 2.2-.5 5.1 1.8 6.3 2.2 1.2 5 .4 6.2-1.8.1-.3.4-.8.8-1.4h41.7c3 0 4.6 7.3 4.6 11.6 0 2-1.9 4.7-3.8 7-.2 0-.4-.1-.6-.1h-17.7c-2.6 0-4.6 2.1-4.6 4.6 0 2.6 2.1 4.6 4.6 4.6h17.7c.5 0 1 .2 1.4.4.3.3.5.6.8.5h.1c2.1 1.6 4 5.2 4 8.3-.1 4.4-3.6 9.4-6.6 9.4z"></path>
    </g>
</svg>